<mxfile host="app.diagrams.net" modified="2021-07-23T02:44:32.746Z" agent="5.0 (Macintosh; Intel Mac OS X 10_15_7) AppleWebKit/537.36 (KHTML, like Gecko) Chrome/92.0.4515.107 Safari/537.36" etag="BcxxpFdto79w1vjAFPMX" version="14.9.1" type="github">
  <diagram id="rC_-q-C5sXUHfJyQTO7R" name="第 1 页">
    <mxGraphModel dx="1426" dy="787" grid="1" gridSize="10" guides="1" tooltips="1" connect="1" arrows="1" fold="1" page="1" pageScale="1" pageWidth="827" pageHeight="1169" math="0" shadow="0">
      <root>
        <mxCell id="0" />
        <mxCell id="1" parent="0" />
        <mxCell id="8PcPeRf8CqjzHStHB_jc-21" value="" style="rounded=0;whiteSpace=wrap;html=1;fillColor=none;" parent="1" vertex="1">
          <mxGeometry x="40" y="120" width="680" height="360" as="geometry" />
        </mxCell>
        <mxCell id="REGAgrP9oS0jDpnpW-cA-7" value="" style="rounded=0;whiteSpace=wrap;html=1;fillColor=none;" vertex="1" parent="1">
          <mxGeometry x="60" y="340" width="240" height="120" as="geometry" />
        </mxCell>
        <mxCell id="8PcPeRf8CqjzHStHB_jc-18" value="" style="rounded=0;whiteSpace=wrap;html=1;fillColor=none;" parent="1" vertex="1">
          <mxGeometry x="340" y="520" width="370" height="220" as="geometry" />
        </mxCell>
        <mxCell id="8PcPeRf8CqjzHStHB_jc-1" value="ms-ui-framework（umi app）" style="rounded=0;whiteSpace=wrap;html=1;" parent="1" vertex="1">
          <mxGeometry x="315" y="140" width="195" height="60" as="geometry" />
        </mxCell>
        <mxCell id="8PcPeRf8CqjzHStHB_jc-2" value="ui-prd&amp;nbsp;" style="rounded=0;whiteSpace=wrap;html=1;" parent="1" vertex="1">
          <mxGeometry x="360" y="635" width="330" height="80" as="geometry" />
        </mxCell>
        <mxCell id="8PcPeRf8CqjzHStHB_jc-3" value="sysmgmt" style="rounded=0;whiteSpace=wrap;html=1;" parent="1" vertex="1">
          <mxGeometry x="180" y="380" width="100" height="60" as="geometry" />
        </mxCell>
        <mxCell id="8PcPeRf8CqjzHStHB_jc-4" value="common" style="rounded=0;whiteSpace=wrap;html=1;" parent="1" vertex="1">
          <mxGeometry x="80" y="380" width="100" height="60" as="geometry" />
        </mxCell>
        <mxCell id="8PcPeRf8CqjzHStHB_jc-8" value="" style="endArrow=classic;html=1;exitX=0.5;exitY=1;exitDx=0;exitDy=0;" parent="1" source="8PcPeRf8CqjzHStHB_jc-1" edge="1">
          <mxGeometry width="50" height="50" relative="1" as="geometry">
            <mxPoint x="270" y="430" as="sourcePoint" />
            <mxPoint x="190" y="340" as="targetPoint" />
            <Array as="points" />
          </mxGeometry>
        </mxCell>
        <mxCell id="8PcPeRf8CqjzHStHB_jc-14" value="umi-plugin-project" style="rounded=0;whiteSpace=wrap;html=1;" parent="1" vertex="1">
          <mxGeometry x="360" y="380" width="150" height="60" as="geometry" />
        </mxCell>
        <mxCell id="8PcPeRf8CqjzHStHB_jc-15" value="umi-plugin-runtime-config" style="rounded=0;whiteSpace=wrap;html=1;" parent="1" vertex="1">
          <mxGeometry x="540" y="380" width="150" height="60" as="geometry" />
        </mxCell>
        <mxCell id="8PcPeRf8CqjzHStHB_jc-16" value="config.json 编译时配置" style="rounded=0;whiteSpace=wrap;html=1;" parent="1" vertex="1">
          <mxGeometry x="360" y="560" width="150" height="60" as="geometry" />
        </mxCell>
        <mxCell id="8PcPeRf8CqjzHStHB_jc-17" value="config.js 运行时配置" style="rounded=0;whiteSpace=wrap;html=1;" parent="1" vertex="1">
          <mxGeometry x="540" y="560" width="150" height="60" as="geometry" />
        </mxCell>
        <mxCell id="8PcPeRf8CqjzHStHB_jc-22" value="" style="endArrow=classic;startArrow=classic;html=1;entryX=0.5;entryY=1;entryDx=0;entryDy=0;exitX=0.5;exitY=0;exitDx=0;exitDy=0;" parent="1" source="8PcPeRf8CqjzHStHB_jc-16" target="8PcPeRf8CqjzHStHB_jc-14" edge="1">
          <mxGeometry width="50" height="50" relative="1" as="geometry">
            <mxPoint x="435" y="520" as="sourcePoint" />
            <mxPoint x="490" y="450" as="targetPoint" />
          </mxGeometry>
        </mxCell>
        <mxCell id="8PcPeRf8CqjzHStHB_jc-23" value="" style="endArrow=classic;startArrow=classic;html=1;entryX=0.5;entryY=1;entryDx=0;entryDy=0;exitX=0.5;exitY=0;exitDx=0;exitDy=0;" parent="1" source="8PcPeRf8CqjzHStHB_jc-17" edge="1">
          <mxGeometry width="50" height="50" relative="1" as="geometry">
            <mxPoint x="614.5" y="520" as="sourcePoint" />
            <mxPoint x="614.5" y="440" as="targetPoint" />
          </mxGeometry>
        </mxCell>
        <mxCell id="8PcPeRf8CqjzHStHB_jc-24" value="" style="rounded=0;whiteSpace=wrap;html=1;fillColor=none;" parent="1" vertex="1">
          <mxGeometry x="345" y="340" width="360" height="120" as="geometry" />
        </mxCell>
        <mxCell id="8PcPeRf8CqjzHStHB_jc-25" value="" style="endArrow=classic;startArrow=classic;html=1;entryX=0.5;entryY=0;entryDx=0;entryDy=0;exitX=0.5;exitY=1;exitDx=0;exitDy=0;" parent="1" source="8PcPeRf8CqjzHStHB_jc-1" target="8PcPeRf8CqjzHStHB_jc-24" edge="1">
          <mxGeometry width="50" height="50" relative="1" as="geometry">
            <mxPoint x="389" y="250" as="sourcePoint" />
            <mxPoint x="439" y="200" as="targetPoint" />
          </mxGeometry>
        </mxCell>
        <mxCell id="REGAgrP9oS0jDpnpW-cA-1" value="插拔式" style="text;html=1;strokeColor=none;fillColor=none;align=center;verticalAlign=middle;whiteSpace=wrap;rounded=0;" vertex="1" parent="1">
          <mxGeometry x="505" y="490" width="40" height="20" as="geometry" />
        </mxCell>
        <mxCell id="REGAgrP9oS0jDpnpW-cA-3" value="公共模块" style="text;html=1;strokeColor=none;fillColor=none;align=center;verticalAlign=middle;whiteSpace=wrap;rounded=0;" vertex="1" parent="1">
          <mxGeometry x="143.5" y="350" width="73" height="20" as="geometry" />
        </mxCell>
        <mxCell id="REGAgrP9oS0jDpnpW-cA-5" value="umi插件" style="text;html=1;strokeColor=none;fillColor=none;align=center;verticalAlign=middle;whiteSpace=wrap;rounded=0;" vertex="1" parent="1">
          <mxGeometry x="483" y="350" width="73" height="20" as="geometry" />
        </mxCell>
        <mxCell id="REGAgrP9oS0jDpnpW-cA-6" value="项目模块" style="text;html=1;strokeColor=none;fillColor=none;align=center;verticalAlign=middle;whiteSpace=wrap;rounded=0;" vertex="1" parent="1">
          <mxGeometry x="493" y="530" width="64" height="20" as="geometry" />
        </mxCell>
        <mxCell id="REGAgrP9oS0jDpnpW-cA-8" value="公共框架" style="text;html=1;strokeColor=none;fillColor=none;align=center;verticalAlign=middle;whiteSpace=wrap;rounded=0;" vertex="1" parent="1">
          <mxGeometry x="143.5" y="160" width="73" height="20" as="geometry" />
        </mxCell>
      </root>
    </mxGraphModel>
  </diagram>
</mxfile>
